  <svg version="1.1" id="Capa_1" xmlns="http://www.w3.org/2000/svg" xmlns:xlink="http://www.w3.org/1999/xlink" x="0px" y="0px" viewBox="0 0 740.57 740.57" style="enable-background:new 0 0 740.57 740.57;" xml:space="preserve">
    <style type="text/css"> .st0{fill:#09332B;} </style>
    <path class="st0" d="M298.82,242.98L121.17,383.31c-11.69,9.23-28.65,7.24-37.88-4.45l-18.21-23.05 c-9.23-11.69-7.24-28.65,4.45-37.88l177.65-140.33c11.69-9.23,28.65-7.24,37.88,4.45l18.21,23.05 C312.5,216.79,310.51,233.75,298.82,242.98z"/>
    <path class="st0" d="M557.2,180.77L112.24,532.24c-11.69,9.23-28.65,7.24-37.88-4.45l-19.28-24.41 c-9.23-11.69-7.24-28.65,4.45-37.88l444.96-351.47c11.69-9.23,28.65-7.24,37.88,4.45l19.28,24.41 C570.88,154.58,568.89,171.54,557.2,180.77z"/>
    <path class="st0" d="M390.04,466.3L148.38,657.19c-11.69,9.23-28.65,7.24-37.88-4.45l-20.11-25.46 c-9.23-11.69-7.24-28.65,4.45-37.88L336.5,398.52c11.69-9.23,28.65-7.24,37.88,4.45l20.11,25.46 C403.72,440.11,401.73,457.07,390.04,466.3z"/>
    <path class="st0" d="M687.47,223.73L445.81,414.62c-11.69,9.23-28.65,7.24-37.88-4.45l-20.11-25.46 c-9.23-11.69-7.24-28.65,4.45-37.88l241.66-190.89c11.69-9.23,28.65-7.24,37.88,4.45l20.11,25.46 C701.15,197.54,699.15,214.5,687.47,223.73z"/>
    <path class="st0" d="M418.28,143.9l-64.52,50.96c-11.69,9.23-28.65,7.24-37.88-4.45l-16.94-21.44c-9.23-11.69-7.24-28.65,4.45-37.88 l64.52-50.96c11.69-9.23,28.65-7.24,37.88,4.45l16.94,21.44C431.96,117.71,429.97,134.66,418.28,143.9z"/>
  </svg>